<?xml version="1.0" encoding="utf-8" standalone="no"?>
<!DOCTYPE svg PUBLIC "-//W3C//DTD SVG 1.1//EN"
  "http://www.w3.org/Graphics/SVG/1.1/DTD/svg11.dtd">
<svg xmlns:xlink="http://www.w3.org/1999/xlink" width="524.409449pt" height="595.275591pt" viewBox="0 0 524.409449 595.275591" xmlns="http://www.w3.org/2000/svg" version="1.1">
 <metadata>
  <rdf:RDF xmlns:dc="http://purl.org/dc/elements/1.1/" xmlns:cc="http://creativecommons.org/ns#" xmlns:rdf="http://www.w3.org/1999/02/22-rdf-syntax-ns#">
   <cc:Work>
    <dc:type rdf:resource="http://purl.org/dc/dcmitype/StillImage"/>
    <dc:date>2024-10-17T11:13:16.737450</dc:date>
    <dc:format>image/svg+xml</dc:format>
    <dc:creator>
     <cc:Agent>
      <dc:title>Matplotlib v3.7.2, https://matplotlib.org/</dc:title>
     </cc:Agent>
    </dc:creator>
   </cc:Work>
  </rdf:RDF>
 </metadata>
 <defs>
  <style type="text/css">*{stroke-linejoin: round; stroke-linecap: butt}</style>
 </defs>
 <g id="figure_1">
  <g id="patch_1">
   <path d="M 0 595.275591 
L 524.409449 595.275591 
L 524.409449 0 
L 0 0 
z
" style="fill: #ffffff"/>
  </g>
  <g id="axes_1">
   <g id="patch_2">
    <path d="M 65.551181 223.539905 
L 165.880144 223.539905 
L 165.880144 71.433071 
L 65.551181 71.433071 
z
" style="fill: #ffffff"/>
   </g>
   <g id="PolyCollection_1">
    <path d="M 70.111588 98.861051 
L 70.111588 141.657293 
L 71.032883 141.454201 
L 71.954177 141.1085 
L 72.875472 140.833009 
L 73.796766 140.716844 
L 74.718061 140.600678 
L 75.639355 140.484513 
L 76.560649 140.283288 
L 77.481944 139.875153 
L 78.403238 139.692927 
L 79.324533 139.683107 
L 80.245827 139.452565 
L 81.167122 139.18291 
L 82.088416 139.087172 
L 83.00971 138.85744 
L 83.931005 138.486436 
L 84.852299 138.502 
L 85.773594 138.387741 
L 86.694888 138.156241 
L 87.616183 137.923316 
L 88.537477 137.770532 
L 89.458771 137.68287 
L 90.380066 137.595209 
L 91.30136 137.440763 
L 92.222655 137.253562 
L 93.143949 137.066361 
L 94.065243 136.87916 
L 94.986538 136.691959 
L 95.907832 136.504758 
L 96.829127 136.311325 
L 97.750421 136.327154 
L 98.671716 136.022607 
L 99.59301 136.008672 
L 100.514304 136.110245 
L 101.435599 136.237581 
L 102.356893 136.311118 
L 103.278188 136.09692 
L 104.199482 135.872224 
L 105.120777 135.651188 
L 106.042071 135.447524 
L 106.963365 135.651827 
L 107.88466 135.3459 
L 108.805954 135.410719 
L 109.727249 135.535536 
L 110.648543 135.525453 
L 111.569837 135.639592 
L 112.491132 135.560175 
L 113.412426 135.645126 
L 114.333721 135.67991 
L 115.255015 135.962499 
L 116.17631 136.148963 
L 117.097604 136.302092 
L 118.018898 136.545829 
L 118.940193 136.788679 
L 119.861487 137.035764 
L 120.782782 137.314417 
L 121.704076 137.79668 
L 122.625371 137.769902 
L 123.546665 138.291792 
L 124.467959 138.631128 
L 125.389254 139.005824 
L 126.310548 139.373015 
L 127.231843 139.523304 
L 128.153137 139.690951 
L 129.074431 140.147615 
L 129.995726 140.407174 
L 130.91702 140.526144 
L 131.838315 140.753874 
L 132.759609 141.217263 
L 133.680904 141.426325 
L 134.602198 141.739404 
L 135.523492 142.07594 
L 136.444787 142.42948 
L 137.366081 142.728931 
L 138.287376 143.059615 
L 139.20867 143.388331 
L 140.129965 143.717047 
L 141.051259 144.045763 
L 141.972553 144.374479 
L 142.893848 144.686318 
L 143.815142 145.03436 
L 144.736437 145.369356 
L 145.657731 145.704352 
L 146.579026 146.135861 
L 147.50032 146.599655 
L 148.421614 147.06345 
L 149.342909 147.465555 
L 150.264203 147.689143 
L 151.185498 148.088994 
L 152.106792 148.419226 
L 153.028086 148.977972 
L 153.949381 149.536717 
L 154.870675 150.107558 
L 155.79197 150.692716 
L 156.713264 151.212282 
L 157.634559 151.641006 
L 158.555853 151.953915 
L 159.477147 152.350668 
L 160.398442 152.747422 
L 161.319736 153.144175 
L 161.319736 107.455581 
L 161.319736 107.455581 
L 160.398442 107.66311 
L 159.477147 107.87064 
L 158.555853 108.081754 
L 157.634559 108.414309 
L 156.713264 108.664624 
L 155.79197 108.828601 
L 154.870675 108.992578 
L 153.949381 109.156556 
L 153.028086 109.330269 
L 152.106792 109.5372 
L 151.185498 109.744132 
L 150.264203 109.951063 
L 149.342909 110.108192 
L 148.421614 110.289726 
L 147.50032 110.565985 
L 146.579026 110.780772 
L 145.657731 110.987206 
L 144.736437 111.193641 
L 143.815142 111.400075 
L 142.893848 111.669014 
L 141.972553 112.00039 
L 141.051259 112.166694 
L 140.129965 112.332999 
L 139.20867 112.499304 
L 138.287376 112.665609 
L 137.366081 112.867057 
L 136.444787 113.159051 
L 135.523492 113.238801 
L 134.602198 113.344992 
L 133.680904 113.604575 
L 132.759609 113.716539 
L 131.838315 113.85546 
L 130.91702 113.983254 
L 129.995726 114.11877 
L 129.074431 114.187303 
L 128.153137 114.254677 
L 127.231843 114.32004 
L 126.310548 114.383008 
L 125.389254 114.435653 
L 124.467959 114.435061 
L 123.546665 114.431074 
L 122.625371 114.293626 
L 121.704076 114.38908 
L 120.782782 114.33491 
L 119.861487 114.378597 
L 118.940193 114.12638 
L 118.018898 113.98591 
L 117.097604 114.051038 
L 116.17631 113.80112 
L 115.255015 113.764037 
L 114.333721 113.508911 
L 113.412426 113.323 
L 112.491132 113.227768 
L 111.569837 113.176711 
L 110.648543 113.162442 
L 109.727249 113.178319 
L 108.805954 113.02787 
L 107.88466 112.899014 
L 106.963365 112.658578 
L 106.042071 112.505906 
L 105.120777 112.374729 
L 104.199482 112.270154 
L 103.278188 112.096796 
L 102.356893 111.858035 
L 101.435599 111.523264 
L 100.514304 111.367276 
L 99.59301 111.062827 
L 98.671716 110.799565 
L 97.750421 110.509297 
L 96.829127 110.223971 
L 95.907832 109.934995 
L 94.986538 109.673906 
L 94.065243 109.2824 
L 93.143949 108.922941 
L 92.222655 108.593703 
L 91.30136 108.104209 
L 90.380066 107.615972 
L 89.458771 107.102785 
L 88.537477 106.835301 
L 87.616183 106.368245 
L 86.694888 106.118703 
L 85.773594 105.746932 
L 84.852299 105.356839 
L 83.931005 104.933185 
L 83.00971 104.570556 
L 82.088416 104.179216 
L 81.167122 103.675658 
L 80.245827 103.396535 
L 79.324533 103.005227 
L 78.403238 102.666235 
L 77.481944 102.230162 
L 76.560649 101.883173 
L 75.639355 101.514869 
L 74.718061 101.157267 
L 73.796766 100.799664 
L 72.875472 100.295013 
L 71.954177 99.865631 
L 71.032883 99.383554 
L 70.111588 98.861051 
z
" clip-path="url(#pa39db7c235)" style="fill: #ff7f50; fill-opacity: 0.15"/>
   </g>
   <g id="PathCollection_1">
    <defs>
     <path id="m49e43cb099" d="M 0 2.738613 
C 0.726289 2.738613 1.422928 2.450055 1.936492 1.936492 
C 2.450055 1.422928 2.738613 0.726289 2.738613 0 
C 2.738613 -0.726289 2.450055 -1.422928 1.936492 -1.936492 
C 1.422928 -2.450055 0.726289 -2.738613 0 -2.738613 
C -0.726289 -2.738613 -1.422928 -2.450055 -1.936492 -1.936492 
C -2.450055 -1.422928 -2.738613 -0.726289 -2.738613 0 
C -2.738613 0.726289 -2.450055 1.422928 -1.936492 1.936492 
C -1.422928 2.450055 -0.726289 2.738613 0 2.738613 
z
" style="stroke: #ffffff; stroke-opacity: 0.75; stroke-width: 0.438178"/>
    </defs>
    <g clip-path="url(#pa39db7c235)">
     <use xlink:href="#m49e43cb099" x="144.576806" y="79.707683" style="fill: #ff7f50; fill-opacity: 0.75; stroke: #ffffff; stroke-opacity: 0.75; stroke-width: 0.438178"/>
     <use xlink:href="#m49e43cb099" x="119.945906" y="79.707683" style="fill: #ff7f50; fill-opacity: 0.75; stroke: #ffffff; stroke-opacity: 0.75; stroke-width: 0.438178"/>
     <use xlink:href="#m49e43cb099" x="125.116815" y="209.343267" style="fill: #ff7f50; fill-opacity: 0.75; stroke: #ffffff; stroke-opacity: 0.75; stroke-width: 0.438178"/>
     <use xlink:href="#m49e43cb099" x="109.806662" y="209.343267" style="fill: #ff7f50; fill-opacity: 0.75; stroke: #ffffff; stroke-opacity: 0.75; stroke-width: 0.438178"/>
     <use xlink:href="#m49e43cb099" x="127.377745" y="153.337531" style="fill: #ff7f50; fill-opacity: 0.75; stroke: #ffffff; stroke-opacity: 0.75; stroke-width: 0.438178"/>
     <use xlink:href="#m49e43cb099" x="107.384205" y="153.337531" style="fill: #ff7f50; fill-opacity: 0.75; stroke: #ffffff; stroke-opacity: 0.75; stroke-width: 0.438178"/>
     <use xlink:href="#m49e43cb099" x="161.319736" y="99.370026" style="fill: #ff7f50; fill-opacity: 0.75; stroke: #ffffff; stroke-opacity: 0.75; stroke-width: 0.438178"/>
     <use xlink:href="#m49e43cb099" x="139.509121" y="99.370026" style="fill: #ff7f50; fill-opacity: 0.75; stroke: #ffffff; stroke-opacity: 0.75; stroke-width: 0.438178"/>
     <use xlink:href="#m49e43cb099" x="138.551786" y="140.033253" style="fill: #ff7f50; fill-opacity: 0.75; stroke: #ffffff; stroke-opacity: 0.75; stroke-width: 0.438178"/>
     <use xlink:href="#m49e43cb099" x="91.799906" y="109.185987" style="fill: #ff7f50; fill-opacity: 0.75; stroke: #ffffff; stroke-opacity: 0.75; stroke-width: 0.438178"/>
     <use xlink:href="#m49e43cb099" x="81.384437" y="109.185987" style="fill: #ff7f50; fill-opacity: 0.75; stroke: #ffffff; stroke-opacity: 0.75; stroke-width: 0.438178"/>
     <use xlink:href="#m49e43cb099" x="132.848454" y="106.204693" style="fill: #ff7f50; fill-opacity: 0.75; stroke: #ffffff; stroke-opacity: 0.75; stroke-width: 0.438178"/>
     <use xlink:href="#m49e43cb099" x="106.691707" y="106.204693" style="fill: #ff7f50; fill-opacity: 0.75; stroke: #ffffff; stroke-opacity: 0.75; stroke-width: 0.438178"/>
     <use xlink:href="#m49e43cb099" x="126.968789" y="108.881773" style="fill: #ff7f50; fill-opacity: 0.75; stroke: #ffffff; stroke-opacity: 0.75; stroke-width: 0.438178"/>
     <use xlink:href="#m49e43cb099" x="116.214139" y="108.881773" style="fill: #ff7f50; fill-opacity: 0.75; stroke: #ffffff; stroke-opacity: 0.75; stroke-width: 0.438178"/>
     <use xlink:href="#m49e43cb099" x="125.258358" y="112.197702" style="fill: #ff7f50; fill-opacity: 0.75; stroke: #ffffff; stroke-opacity: 0.75; stroke-width: 0.438178"/>
     <use xlink:href="#m49e43cb099" x="112.665006" y="139.039488" style="fill: #ff7f50; fill-opacity: 0.75; stroke: #ffffff; stroke-opacity: 0.75; stroke-width: 0.438178"/>
     <use xlink:href="#m49e43cb099" x="89.137705" y="94.533029" style="fill: #ff7f50; fill-opacity: 0.75; stroke: #ffffff; stroke-opacity: 0.75; stroke-width: 0.438178"/>
     <use xlink:href="#m49e43cb099" x="130.952987" y="94.533029" style="fill: #ff7f50; fill-opacity: 0.75; stroke: #ffffff; stroke-opacity: 0.75; stroke-width: 0.438178"/>
     <use xlink:href="#m49e43cb099" x="81.790211" y="155.264217" style="fill: #ff7f50; fill-opacity: 0.75; stroke: #ffffff; stroke-opacity: 0.75; stroke-width: 0.438178"/>
     <use xlink:href="#m49e43cb099" x="110.582467" y="155.264217" style="fill: #ff7f50; fill-opacity: 0.75; stroke: #ffffff; stroke-opacity: 0.75; stroke-width: 0.438178"/>
     <use xlink:href="#m49e43cb099" x="102.829632" y="119.519111" style="fill: #ff7f50; fill-opacity: 0.75; stroke: #ffffff; stroke-opacity: 0.75; stroke-width: 0.438178"/>
     <use xlink:href="#m49e43cb099" x="131.269977" y="119.519111" style="fill: #ff7f50; fill-opacity: 0.75; stroke: #ffffff; stroke-opacity: 0.75; stroke-width: 0.438178"/>
     <use xlink:href="#m49e43cb099" x="109.248649" y="175.889904" style="fill: #ff7f50; fill-opacity: 0.75; stroke: #ffffff; stroke-opacity: 0.75; stroke-width: 0.438178"/>
     <use xlink:href="#m49e43cb099" x="100.547659" y="126.587009" style="fill: #ff7f50; fill-opacity: 0.75; stroke: #ffffff; stroke-opacity: 0.75; stroke-width: 0.438178"/>
     <use xlink:href="#m49e43cb099" x="102.252893" y="126.587009" style="fill: #ff7f50; fill-opacity: 0.75; stroke: #ffffff; stroke-opacity: 0.75; stroke-width: 0.438178"/>
     <use xlink:href="#m49e43cb099" x="70.111588" y="117.308492" style="fill: #ff7f50; fill-opacity: 0.75; stroke: #ffffff; stroke-opacity: 0.75; stroke-width: 0.438178"/>
     <use xlink:href="#m49e43cb099" x="94.846384" y="117.308492" style="fill: #ff7f50; fill-opacity: 0.75; stroke: #ffffff; stroke-opacity: 0.75; stroke-width: 0.438178"/>
     <use xlink:href="#m49e43cb099" x="145.531219" y="134.810918" style="fill: #ff7f50; fill-opacity: 0.75; stroke: #ffffff; stroke-opacity: 0.75; stroke-width: 0.438178"/>
     <use xlink:href="#m49e43cb099" x="130.196298" y="134.810918" style="fill: #ff7f50; fill-opacity: 0.75; stroke: #ffffff; stroke-opacity: 0.75; stroke-width: 0.438178"/>
     <use xlink:href="#m49e43cb099" x="121.794026" y="181.953897" style="fill: #ff7f50; fill-opacity: 0.75; stroke: #ffffff; stroke-opacity: 0.75; stroke-width: 0.438178"/>
     <use xlink:href="#m49e43cb099" x="127.846021" y="181.953897" style="fill: #ff7f50; fill-opacity: 0.75; stroke: #ffffff; stroke-opacity: 0.75; stroke-width: 0.438178"/>
     <use xlink:href="#m49e43cb099" x="104.761471" y="78.673356" style="fill: #ff7f50; fill-opacity: 0.75; stroke: #ffffff; stroke-opacity: 0.75; stroke-width: 0.438178"/>
     <use xlink:href="#m49e43cb099" x="106.79688" y="78.673356" style="fill: #ff7f50; fill-opacity: 0.75; stroke: #ffffff; stroke-opacity: 0.75; stroke-width: 0.438178"/>
     <use xlink:href="#m49e43cb099" x="137.773859" y="79.88007" style="fill: #ff7f50; fill-opacity: 0.75; stroke: #ffffff; stroke-opacity: 0.75; stroke-width: 0.438178"/>
     <use xlink:href="#m49e43cb099" x="113.708376" y="79.88007" style="fill: #ff7f50; fill-opacity: 0.75; stroke: #ffffff; stroke-opacity: 0.75; stroke-width: 0.438178"/>
     <use xlink:href="#m49e43cb099" x="137.791569" y="158.600427" style="fill: #ff7f50; fill-opacity: 0.75; stroke: #ffffff; stroke-opacity: 0.75; stroke-width: 0.438178"/>
     <use xlink:href="#m49e43cb099" x="153.689957" y="158.600427" style="fill: #ff7f50; fill-opacity: 0.75; stroke: #ffffff; stroke-opacity: 0.75; stroke-width: 0.438178"/>
     <use xlink:href="#m49e43cb099" x="82.28451" y="96.267047" style="fill: #ff7f50; fill-opacity: 0.75; stroke: #ffffff; stroke-opacity: 0.75; stroke-width: 0.438178"/>
     <use xlink:href="#m49e43cb099" x="100.906432" y="96.267047" style="fill: #ff7f50; fill-opacity: 0.75; stroke: #ffffff; stroke-opacity: 0.75; stroke-width: 0.438178"/>
    </g>
   </g>
   <g id="matplotlib.axis_1">
    <g id="xtick_1">
     <g id="text_1">
      <!-- 18 -->
      <g transform="translate(76.538592 235.098967) scale(0.06 -0.06)">
       <defs>
        <path id="DejaVuSans-31" d="M 794 531 
L 1825 531 
L 1825 4091 
L 703 3866 
L 703 4441 
L 1819 4666 
L 2450 4666 
L 2450 531 
L 3481 531 
L 3481 0 
L 794 0 
L 794 531 
z
" transform="scale(0.015625)"/>
        <path id="DejaVuSans-38" d="M 2034 2216 
Q 1584 2216 1326 1975 
Q 1069 1734 1069 1313 
Q 1069 891 1326 650 
Q 1584 409 2034 409 
Q 2484 409 2743 651 
Q 3003 894 3003 1313 
Q 3003 1734 2745 1975 
Q 2488 2216 2034 2216 
z
M 1403 2484 
Q 997 2584 770 2862 
Q 544 3141 544 3541 
Q 544 4100 942 4425 
Q 1341 4750 2034 4750 
Q 2731 4750 3128 4425 
Q 3525 4100 3525 3541 
Q 3525 3141 3298 2862 
Q 3072 2584 2669 2484 
Q 3125 2378 3379 2068 
Q 3634 1759 3634 1313 
Q 3634 634 3220 271 
Q 2806 -91 2034 -91 
Q 1263 -91 848 271 
Q 434 634 434 1313 
Q 434 1759 690 2068 
Q 947 2378 1403 2484 
z
M 1172 3481 
Q 1172 3119 1398 2916 
Q 1625 2713 2034 2713 
Q 2441 2713 2670 2916 
Q 2900 3119 2900 3481 
Q 2900 3844 2670 4047 
Q 2441 4250 2034 4250 
Q 1625 4250 1398 4047 
Q 1172 3844 1172 3481 
z
" transform="scale(0.015625)"/>
       </defs>
       <use xlink:href="#DejaVuSans-31"/>
       <use xlink:href="#DejaVuSans-38" x="63.623047"/>
      </g>
     </g>
    </g>
    <g id="xtick_2">
     <g id="text_2">
      <!-- 20 -->
      <g transform="translate(97.754975 235.098967) scale(0.06 -0.06)">
       <defs>
        <path id="DejaVuSans-32" d="M 1228 531 
L 3431 531 
L 3431 0 
L 469 0 
L 469 531 
Q 828 903 1448 1529 
Q 2069 2156 2228 2338 
Q 2531 2678 2651 2914 
Q 2772 3150 2772 3378 
Q 2772 3750 2511 3984 
Q 2250 4219 1831 4219 
Q 1534 4219 1204 4116 
Q 875 4013 500 3803 
L 500 4441 
Q 881 4594 1212 4672 
Q 1544 4750 1819 4750 
Q 2544 4750 2975 4387 
Q 3406 4025 3406 3419 
Q 3406 3131 3298 2873 
Q 3191 2616 2906 2266 
Q 2828 2175 2409 1742 
Q 1991 1309 1228 531 
z
" transform="scale(0.015625)"/>
        <path id="DejaVuSans-30" d="M 2034 4250 
Q 1547 4250 1301 3770 
Q 1056 3291 1056 2328 
Q 1056 1369 1301 889 
Q 1547 409 2034 409 
Q 2525 409 2770 889 
Q 3016 1369 3016 2328 
Q 3016 3291 2770 3770 
Q 2525 4250 2034 4250 
z
M 2034 4750 
Q 2819 4750 3233 4129 
Q 3647 3509 3647 2328 
Q 3647 1150 3233 529 
Q 2819 -91 2034 -91 
Q 1250 -91 836 529 
Q 422 1150 422 2328 
Q 422 3509 836 4129 
Q 1250 4750 2034 4750 
z
" transform="scale(0.015625)"/>
       </defs>
       <use xlink:href="#DejaVuSans-32"/>
       <use xlink:href="#DejaVuSans-30" x="63.623047"/>
      </g>
     </g>
    </g>
    <g id="xtick_3">
     <g id="text_3">
      <!-- 22 -->
      <g transform="translate(118.971358 235.098967) scale(0.06 -0.06)">
       <use xlink:href="#DejaVuSans-32"/>
       <use xlink:href="#DejaVuSans-32" x="63.623047"/>
      </g>
     </g>
    </g>
    <g id="xtick_4">
     <g id="text_4">
      <!-- 24 -->
      <g transform="translate(140.187741 235.098967) scale(0.06 -0.06)">
       <defs>
        <path id="DejaVuSans-34" d="M 2419 4116 
L 825 1625 
L 2419 1625 
L 2419 4116 
z
M 2253 4666 
L 3047 4666 
L 3047 1625 
L 3713 1625 
L 3713 1100 
L 3047 1100 
L 3047 0 
L 2419 0 
L 2419 1100 
L 313 1100 
L 313 1709 
L 2253 4666 
z
" transform="scale(0.015625)"/>
       </defs>
       <use xlink:href="#DejaVuSans-32"/>
       <use xlink:href="#DejaVuSans-34" x="63.623047"/>
      </g>
     </g>
    </g>
    <g id="xtick_5">
     <g id="text_5">
      <!-- 26 -->
      <g transform="translate(161.404124 235.098967) scale(0.06 -0.06)">
       <defs>
        <path id="DejaVuSans-36" d="M 2113 2584 
Q 1688 2584 1439 2293 
Q 1191 2003 1191 1497 
Q 1191 994 1439 701 
Q 1688 409 2113 409 
Q 2538 409 2786 701 
Q 3034 994 3034 1497 
Q 3034 2003 2786 2293 
Q 2538 2584 2113 2584 
z
M 3366 4563 
L 3366 3988 
Q 3128 4100 2886 4159 
Q 2644 4219 2406 4219 
Q 1781 4219 1451 3797 
Q 1122 3375 1075 2522 
Q 1259 2794 1537 2939 
Q 1816 3084 2150 3084 
Q 2853 3084 3261 2657 
Q 3669 2231 3669 1497 
Q 3669 778 3244 343 
Q 2819 -91 2113 -91 
Q 1303 -91 875 529 
Q 447 1150 447 2328 
Q 447 3434 972 4092 
Q 1497 4750 2381 4750 
Q 2619 4750 2861 4703 
Q 3103 4656 3366 4563 
z
" transform="scale(0.015625)"/>
       </defs>
       <use xlink:href="#DejaVuSans-32"/>
       <use xlink:href="#DejaVuSans-36" x="63.623047"/>
      </g>
     </g>
    </g>
    <g id="text_6">
     <!-- x -->
     <g transform="translate(112.756287 247.945217) scale(0.1 -0.1)">
      <defs>
       <path id="DejaVuSans-78" d="M 3513 3500 
L 2247 1797 
L 3578 0 
L 2900 0 
L 1881 1375 
L 863 0 
L 184 0 
L 1544 1831 
L 300 3500 
L 978 3500 
L 1906 2253 
L 2834 3500 
L 3513 3500 
z
" transform="scale(0.015625)"/>
      </defs>
      <use xlink:href="#DejaVuSans-78"/>
     </g>
    </g>
   </g>
   <g id="matplotlib.axis_2">
    <g id="ytick_1">
     <g id="text_7">
      <!-- −50 -->
      <g transform="translate(45.888369 225.819436) scale(0.06 -0.06)">
       <defs>
        <path id="DejaVuSans-2212" d="M 678 2272 
L 4684 2272 
L 4684 1741 
L 678 1741 
L 678 2272 
z
" transform="scale(0.015625)"/>
        <path id="DejaVuSans-35" d="M 691 4666 
L 3169 4666 
L 3169 4134 
L 1269 4134 
L 1269 2991 
Q 1406 3038 1543 3061 
Q 1681 3084 1819 3084 
Q 2600 3084 3056 2656 
Q 3513 2228 3513 1497 
Q 3513 744 3044 326 
Q 2575 -91 1722 -91 
Q 1428 -91 1123 -41 
Q 819 9 494 109 
L 494 744 
Q 775 591 1075 516 
Q 1375 441 1709 441 
Q 2250 441 2565 725 
Q 2881 1009 2881 1497 
Q 2881 1984 2565 2268 
Q 2250 2553 1709 2553 
Q 1456 2553 1204 2497 
Q 953 2441 691 2322 
L 691 4666 
z
" transform="scale(0.015625)"/>
       </defs>
       <use xlink:href="#DejaVuSans-2212"/>
       <use xlink:href="#DejaVuSans-35" x="83.789062"/>
       <use xlink:href="#DejaVuSans-30" x="147.412109"/>
      </g>
     </g>
    </g>
    <g id="ytick_2">
     <g id="text_8">
      <!-- −25 -->
      <g transform="translate(45.888369 200.468297) scale(0.06 -0.06)">
       <use xlink:href="#DejaVuSans-2212"/>
       <use xlink:href="#DejaVuSans-32" x="83.789062"/>
       <use xlink:href="#DejaVuSans-35" x="147.412109"/>
      </g>
     </g>
    </g>
    <g id="ytick_3">
     <g id="text_9">
      <!-- 0 -->
      <g transform="translate(54.733681 175.117158) scale(0.06 -0.06)">
       <use xlink:href="#DejaVuSans-30"/>
      </g>
     </g>
    </g>
    <g id="ytick_4">
     <g id="text_10">
      <!-- 25 -->
      <g transform="translate(50.916181 149.766019) scale(0.06 -0.06)">
       <use xlink:href="#DejaVuSans-32"/>
       <use xlink:href="#DejaVuSans-35" x="63.623047"/>
      </g>
     </g>
    </g>
    <g id="ytick_5">
     <g id="text_11">
      <!-- 50 -->
      <g transform="translate(50.916181 124.41488) scale(0.06 -0.06)">
       <use xlink:href="#DejaVuSans-35"/>
       <use xlink:href="#DejaVuSans-30" x="63.623047"/>
      </g>
     </g>
    </g>
    <g id="ytick_6">
     <g id="text_12">
      <!-- 75 -->
      <g transform="translate(50.916181 99.063741) scale(0.06 -0.06)">
       <defs>
        <path id="DejaVuSans-37" d="M 525 4666 
L 3525 4666 
L 3525 4397 
L 1831 0 
L 1172 0 
L 2766 4134 
L 525 4134 
L 525 4666 
z
" transform="scale(0.015625)"/>
       </defs>
       <use xlink:href="#DejaVuSans-37"/>
       <use xlink:href="#DejaVuSans-35" x="63.623047"/>
      </g>
     </g>
    </g>
    <g id="ytick_7">
     <g id="text_13">
      <!-- 100 -->
      <g transform="translate(47.098681 73.712602) scale(0.06 -0.06)">
       <use xlink:href="#DejaVuSans-31"/>
       <use xlink:href="#DejaVuSans-30" x="63.623047"/>
       <use xlink:href="#DejaVuSans-30" x="127.246094"/>
      </g>
     </g>
    </g>
    <g id="text_14">
     <!-- improvement -->
     <g transform="translate(39.808681 181.034144) rotate(-90) scale(0.1 -0.1)">
      <defs>
       <path id="DejaVuSans-69" d="M 603 3500 
L 1178 3500 
L 1178 0 
L 603 0 
L 603 3500 
z
M 603 4863 
L 1178 4863 
L 1178 4134 
L 603 4134 
L 603 4863 
z
" transform="scale(0.015625)"/>
       <path id="DejaVuSans-6d" d="M 3328 2828 
Q 3544 3216 3844 3400 
Q 4144 3584 4550 3584 
Q 5097 3584 5394 3201 
Q 5691 2819 5691 2113 
L 5691 0 
L 5113 0 
L 5113 2094 
Q 5113 2597 4934 2840 
Q 4756 3084 4391 3084 
Q 3944 3084 3684 2787 
Q 3425 2491 3425 1978 
L 3425 0 
L 2847 0 
L 2847 2094 
Q 2847 2600 2669 2842 
Q 2491 3084 2119 3084 
Q 1678 3084 1418 2786 
Q 1159 2488 1159 1978 
L 1159 0 
L 581 0 
L 581 3500 
L 1159 3500 
L 1159 2956 
Q 1356 3278 1631 3431 
Q 1906 3584 2284 3584 
Q 2666 3584 2933 3390 
Q 3200 3197 3328 2828 
z
" transform="scale(0.015625)"/>
       <path id="DejaVuSans-70" d="M 1159 525 
L 1159 -1331 
L 581 -1331 
L 581 3500 
L 1159 3500 
L 1159 2969 
Q 1341 3281 1617 3432 
Q 1894 3584 2278 3584 
Q 2916 3584 3314 3078 
Q 3713 2572 3713 1747 
Q 3713 922 3314 415 
Q 2916 -91 2278 -91 
Q 1894 -91 1617 61 
Q 1341 213 1159 525 
z
M 3116 1747 
Q 3116 2381 2855 2742 
Q 2594 3103 2138 3103 
Q 1681 3103 1420 2742 
Q 1159 2381 1159 1747 
Q 1159 1113 1420 752 
Q 1681 391 2138 391 
Q 2594 391 2855 752 
Q 3116 1113 3116 1747 
z
" transform="scale(0.015625)"/>
       <path id="DejaVuSans-72" d="M 2631 2963 
Q 2534 3019 2420 3045 
Q 2306 3072 2169 3072 
Q 1681 3072 1420 2755 
Q 1159 2438 1159 1844 
L 1159 0 
L 581 0 
L 581 3500 
L 1159 3500 
L 1159 2956 
Q 1341 3275 1631 3429 
Q 1922 3584 2338 3584 
Q 2397 3584 2469 3576 
Q 2541 3569 2628 3553 
L 2631 2963 
z
" transform="scale(0.015625)"/>
       <path id="DejaVuSans-6f" d="M 1959 3097 
Q 1497 3097 1228 2736 
Q 959 2375 959 1747 
Q 959 1119 1226 758 
Q 1494 397 1959 397 
Q 2419 397 2687 759 
Q 2956 1122 2956 1747 
Q 2956 2369 2687 2733 
Q 2419 3097 1959 3097 
z
M 1959 3584 
Q 2709 3584 3137 3096 
Q 3566 2609 3566 1747 
Q 3566 888 3137 398 
Q 2709 -91 1959 -91 
Q 1206 -91 779 398 
Q 353 888 353 1747 
Q 353 2609 779 3096 
Q 1206 3584 1959 3584 
z
" transform="scale(0.015625)"/>
       <path id="DejaVuSans-76" d="M 191 3500 
L 800 3500 
L 1894 563 
L 2988 3500 
L 3597 3500 
L 2284 0 
L 1503 0 
L 191 3500 
z
" transform="scale(0.015625)"/>
       <path id="DejaVuSans-65" d="M 3597 1894 
L 3597 1613 
L 953 1613 
Q 991 1019 1311 708 
Q 1631 397 2203 397 
Q 2534 397 2845 478 
Q 3156 559 3463 722 
L 3463 178 
Q 3153 47 2828 -22 
Q 2503 -91 2169 -91 
Q 1331 -91 842 396 
Q 353 884 353 1716 
Q 353 2575 817 3079 
Q 1281 3584 2069 3584 
Q 2775 3584 3186 3129 
Q 3597 2675 3597 1894 
z
M 3022 2063 
Q 3016 2534 2758 2815 
Q 2500 3097 2075 3097 
Q 1594 3097 1305 2825 
Q 1016 2553 972 2059 
L 3022 2063 
z
" transform="scale(0.015625)"/>
       <path id="DejaVuSans-6e" d="M 3513 2113 
L 3513 0 
L 2938 0 
L 2938 2094 
Q 2938 2591 2744 2837 
Q 2550 3084 2163 3084 
Q 1697 3084 1428 2787 
Q 1159 2491 1159 1978 
L 1159 0 
L 581 0 
L 581 3500 
L 1159 3500 
L 1159 2956 
Q 1366 3272 1645 3428 
Q 1925 3584 2291 3584 
Q 2894 3584 3203 3211 
Q 3513 2838 3513 2113 
z
" transform="scale(0.015625)"/>
       <path id="DejaVuSans-74" d="M 1172 4494 
L 1172 3500 
L 2356 3500 
L 2356 3053 
L 1172 3053 
L 1172 1153 
Q 1172 725 1289 603 
Q 1406 481 1766 481 
L 2356 481 
L 2356 0 
L 1766 0 
Q 1100 0 847 248 
Q 594 497 594 1153 
L 594 3053 
L 172 3053 
L 172 3500 
L 594 3500 
L 594 4494 
L 1172 4494 
z
" transform="scale(0.015625)"/>
      </defs>
      <use xlink:href="#DejaVuSans-69"/>
      <use xlink:href="#DejaVuSans-6d" x="27.783203"/>
      <use xlink:href="#DejaVuSans-70" x="125.195312"/>
      <use xlink:href="#DejaVuSans-72" x="188.671875"/>
      <use xlink:href="#DejaVuSans-6f" x="227.535156"/>
      <use xlink:href="#DejaVuSans-76" x="288.716797"/>
      <use xlink:href="#DejaVuSans-65" x="347.896484"/>
      <use xlink:href="#DejaVuSans-6d" x="409.419922"/>
      <use xlink:href="#DejaVuSans-65" x="506.832031"/>
      <use xlink:href="#DejaVuSans-6e" x="568.355469"/>
      <use xlink:href="#DejaVuSans-74" x="631.734375"/>
     </g>
    </g>
   </g>
   <g id="line2d_1">
    <path d="M 70.111588 119.194239 
L 71.032883 119.302949 
L 71.954177 119.411659 
L 72.875472 119.520369 
L 73.796766 119.629079 
L 74.718061 119.737788 
L 75.639355 119.846498 
L 76.560649 119.955208 
L 77.481944 120.063918 
L 78.403238 120.172628 
L 79.324533 120.281338 
L 80.245827 120.390048 
L 81.167122 120.498758 
L 82.088416 120.607467 
L 83.00971 120.716177 
L 83.931005 120.824887 
L 84.852299 120.933597 
L 85.773594 121.042307 
L 86.694888 121.151017 
L 87.616183 121.259727 
L 88.537477 121.368437 
L 89.458771 121.477146 
L 90.380066 121.585856 
L 91.30136 121.694566 
L 92.222655 121.803276 
L 93.143949 121.911986 
L 94.065243 122.020696 
L 94.986538 122.129406 
L 95.907832 122.238116 
L 96.829127 122.346825 
L 97.750421 122.455535 
L 98.671716 122.564245 
L 99.59301 122.672955 
L 100.514304 122.781665 
L 101.435599 122.890375 
L 102.356893 122.999085 
L 103.278188 123.107795 
L 104.199482 123.216505 
L 105.120777 123.325214 
L 106.042071 123.433924 
L 106.963365 123.542634 
L 107.88466 123.651344 
L 108.805954 123.760054 
L 109.727249 123.868764 
L 110.648543 123.977474 
L 111.569837 124.086184 
L 112.491132 124.194893 
L 113.412426 124.303603 
L 114.333721 124.412313 
L 115.255015 124.521023 
L 116.17631 124.629733 
L 117.097604 124.738443 
L 118.018898 124.847153 
L 118.940193 124.955863 
L 119.861487 125.064572 
L 120.782782 125.173282 
L 121.704076 125.281992 
L 122.625371 125.390702 
L 123.546665 125.499412 
L 124.467959 125.608122 
L 125.389254 125.716832 
L 126.310548 125.825542 
L 127.231843 125.934251 
L 128.153137 126.042961 
L 129.074431 126.151671 
L 129.995726 126.260381 
L 130.91702 126.369091 
L 131.838315 126.477801 
L 132.759609 126.586511 
L 133.680904 126.695221 
L 134.602198 126.803931 
L 135.523492 126.91264 
L 136.444787 127.02135 
L 137.366081 127.13006 
L 138.287376 127.23877 
L 139.20867 127.34748 
L 140.129965 127.45619 
L 141.051259 127.5649 
L 141.972553 127.67361 
L 142.893848 127.782319 
L 143.815142 127.891029 
L 144.736437 127.999739 
L 145.657731 128.108449 
L 146.579026 128.217159 
L 147.50032 128.325869 
L 148.421614 128.434579 
L 149.342909 128.543289 
L 150.264203 128.651998 
L 151.185498 128.760708 
L 152.106792 128.869418 
L 153.028086 128.978128 
L 153.949381 129.086838 
L 154.870675 129.195548 
L 155.79197 129.304258 
L 156.713264 129.412968 
L 157.634559 129.521677 
L 158.555853 129.630387 
L 159.477147 129.739097 
L 160.398442 129.847807 
L 161.319736 129.956517 
" clip-path="url(#pa39db7c235)" style="fill: none; stroke: #ff7f50; stroke-width: 2.25; stroke-linecap: square"/>
   </g>
   <g id="line2d_2">
    <path d="M 65.551181 122.135349 
L 165.880144 122.135349 
" clip-path="url(#pa39db7c235)" style="fill: none; stroke: #a9a9a9; stroke-width: 1.5; stroke-linecap: square"/>
   </g>
   <g id="line2d_3">
    <path d="M 65.551181 147.486488 
L 165.880144 147.486488 
" clip-path="url(#pa39db7c235)" style="fill: none; stroke: #a9a9a9; stroke-width: 1.5; stroke-linecap: square"/>
   </g>
  </g>
  <g id="axes_2">
   <g id="patch_3">
    <path d="M 218.595361 223.539905 
L 318.924324 223.539905 
L 318.924324 71.433071 
L 218.595361 71.433071 
z
" style="fill: #ffffff"/>
   </g>
   <g id="PolyCollection_2">
    <path d="M 223.155769 82.228016 
L 223.155769 122.541993 
L 224.077063 122.563638 
L 224.998357 122.611829 
L 225.919652 122.605913 
L 226.840946 122.75859 
L 227.762241 122.777438 
L 228.683535 122.864685 
L 229.60483 122.919206 
L 230.526124 122.87262 
L 231.447418 122.840518 
L 232.368713 122.915507 
L 233.290007 122.960098 
L 234.211302 122.979955 
L 235.132596 123.0516 
L 236.053891 123.283658 
L 236.975185 123.446461 
L 237.896479 123.348827 
L 238.817774 123.251193 
L 239.739068 123.245302 
L 240.660363 123.329622 
L 241.581657 123.380512 
L 242.502951 123.657492 
L 243.424246 123.6422 
L 244.34554 123.856306 
L 245.266835 124.11999 
L 246.188129 124.435342 
L 247.109424 124.433295 
L 248.030718 124.523633 
L 248.952012 124.884986 
L 249.873307 124.996888 
L 250.794601 125.193257 
L 251.715896 125.416717 
L 252.63719 125.657456 
L 253.558485 125.909535 
L 254.479779 126.179256 
L 255.401073 126.445254 
L 256.322368 126.732073 
L 257.243662 127.235976 
L 258.164957 127.61624 
L 259.086251 127.939915 
L 260.007546 128.365884 
L 260.92884 128.537298 
L 261.850134 129.034936 
L 262.771429 129.496887 
L 263.692723 130.043712 
L 264.614018 130.548956 
L 265.535312 131.026121 
L 266.456606 131.467169 
L 267.377901 131.935041 
L 268.299195 132.573978 
L 269.22049 133.123387 
L 270.141784 133.816757 
L 271.063079 134.302856 
L 271.984373 134.879538 
L 272.905667 135.49215 
L 273.826962 136.08477 
L 274.748256 136.745777 
L 275.669551 137.303733 
L 276.590845 137.87448 
L 277.51214 138.498484 
L 278.433434 139.169274 
L 279.354728 140.033525 
L 280.276023 140.897776 
L 281.197317 141.762027 
L 282.118612 142.46868 
L 283.039906 143.164794 
L 283.9612 143.989491 
L 284.882495 144.815252 
L 285.803789 145.64794 
L 286.725084 146.437689 
L 287.646378 147.303889 
L 288.567673 148.025188 
L 289.488967 148.962585 
L 290.410261 149.795436 
L 291.331556 150.62302 
L 292.25285 151.372082 
L 293.174145 152.281101 
L 294.095439 153.114051 
L 295.016734 153.942936 
L 295.938028 154.771822 
L 296.859322 155.600708 
L 297.780617 156.429593 
L 298.701911 157.258479 
L 299.623206 158.087364 
L 300.5445 158.918602 
L 301.465794 159.866013 
L 302.387089 160.863335 
L 303.308383 161.637619 
L 304.229678 162.409649 
L 305.150972 163.155192 
L 306.072267 163.892922 
L 306.993561 164.72092 
L 307.914855 165.541718 
L 308.83615 166.274592 
L 309.757444 167.056252 
L 310.678739 167.865031 
L 311.600033 168.846259 
L 312.521328 169.700627 
L 313.442622 170.605505 
L 314.363916 171.635396 
L 314.363916 117.683903 
L 314.363916 117.683903 
L 313.442622 117.674582 
L 312.521328 117.681377 
L 311.600033 117.680114 
L 310.678739 117.677864 
L 309.757444 117.633617 
L 308.83615 117.634214 
L 307.914855 117.637829 
L 306.993561 117.549673 
L 306.072267 117.458405 
L 305.150972 117.367138 
L 304.229678 117.27587 
L 303.308383 117.184603 
L 302.387089 117.093335 
L 301.465794 117.002068 
L 300.5445 116.914276 
L 299.623206 116.827528 
L 298.701911 116.854373 
L 297.780617 116.947972 
L 296.859322 117.047165 
L 295.938028 116.970722 
L 295.016734 116.901061 
L 294.095439 116.728898 
L 293.174145 116.541148 
L 292.25285 116.411816 
L 291.331556 116.380106 
L 290.410261 116.254337 
L 289.488967 116.391318 
L 288.567673 116.528299 
L 287.646378 116.336373 
L 286.725084 116.113632 
L 285.803789 115.894874 
L 284.882495 115.703767 
L 283.9612 115.844247 
L 283.039906 115.769588 
L 282.118612 115.611549 
L 281.197317 115.501306 
L 280.276023 115.451213 
L 279.354728 115.556206 
L 278.433434 115.408673 
L 277.51214 115.091407 
L 276.590845 115.050915 
L 275.669551 114.991575 
L 274.748256 114.765123 
L 273.826962 114.483987 
L 272.905667 114.286294 
L 271.984373 114.081816 
L 271.063079 113.99024 
L 270.141784 113.776738 
L 269.22049 113.454735 
L 268.299195 113.065561 
L 267.377901 112.70988 
L 266.456606 112.339874 
L 265.535312 111.998642 
L 264.614018 111.655441 
L 263.692723 111.432421 
L 262.771429 110.969686 
L 261.850134 110.596011 
L 260.92884 110.218629 
L 260.007546 109.873003 
L 259.086251 109.467724 
L 258.164957 108.962494 
L 257.243662 108.629667 
L 256.322368 108.270981 
L 255.401073 107.794335 
L 254.479779 107.206298 
L 253.558485 106.618764 
L 252.63719 105.745688 
L 251.715896 105.278888 
L 250.794601 104.676581 
L 249.873307 103.924124 
L 248.952012 103.417136 
L 248.030718 102.849484 
L 247.109424 102.153584 
L 246.188129 101.43289 
L 245.266835 100.713372 
L 244.34554 100.230921 
L 243.424246 99.671859 
L 242.502951 98.99162 
L 241.581657 98.220592 
L 240.660363 97.423628 
L 239.739068 96.547378 
L 238.817774 95.756595 
L 237.896479 94.934135 
L 236.975185 94.178988 
L 236.053891 93.389038 
L 235.132596 92.600624 
L 234.211302 91.811554 
L 233.290007 90.96408 
L 232.368713 90.212966 
L 231.447418 89.443605 
L 230.526124 88.656036 
L 229.60483 87.865222 
L 228.683535 87.072969 
L 227.762241 86.280716 
L 226.840946 85.489542 
L 225.919652 84.699592 
L 224.998357 83.909642 
L 224.077063 83.119693 
L 223.155769 82.228016 
z
" clip-path="url(#p6855100fa9)" style="fill: #ff7f50; fill-opacity: 0.15"/>
   </g>
   <g id="PathCollection_2">
    <g clip-path="url(#p6855100fa9)">
     <use xlink:href="#m49e43cb099" x="246.641192" y="79.707683" style="fill: #ff7f50; fill-opacity: 0.75; stroke: #ffffff; stroke-opacity: 0.75; stroke-width: 0.438178"/>
     <use xlink:href="#m49e43cb099" x="240.406057" y="79.707683" style="fill: #ff7f50; fill-opacity: 0.75; stroke: #ffffff; stroke-opacity: 0.75; stroke-width: 0.438178"/>
     <use xlink:href="#m49e43cb099" x="299.541691" y="209.343267" style="fill: #ff7f50; fill-opacity: 0.75; stroke: #ffffff; stroke-opacity: 0.75; stroke-width: 0.438178"/>
     <use xlink:href="#m49e43cb099" x="304.668595" y="209.343267" style="fill: #ff7f50; fill-opacity: 0.75; stroke: #ffffff; stroke-opacity: 0.75; stroke-width: 0.438178"/>
     <use xlink:href="#m49e43cb099" x="287.809586" y="153.337531" style="fill: #ff7f50; fill-opacity: 0.75; stroke: #ffffff; stroke-opacity: 0.75; stroke-width: 0.438178"/>
     <use xlink:href="#m49e43cb099" x="236.238607" y="153.337531" style="fill: #ff7f50; fill-opacity: 0.75; stroke: #ffffff; stroke-opacity: 0.75; stroke-width: 0.438178"/>
     <use xlink:href="#m49e43cb099" x="298.230653" y="99.370026" style="fill: #ff7f50; fill-opacity: 0.75; stroke: #ffffff; stroke-opacity: 0.75; stroke-width: 0.438178"/>
     <use xlink:href="#m49e43cb099" x="278.974349" y="99.370026" style="fill: #ff7f50; fill-opacity: 0.75; stroke: #ffffff; stroke-opacity: 0.75; stroke-width: 0.438178"/>
     <use xlink:href="#m49e43cb099" x="223.155769" y="140.033253" style="fill: #ff7f50; fill-opacity: 0.75; stroke: #ffffff; stroke-opacity: 0.75; stroke-width: 0.438178"/>
     <use xlink:href="#m49e43cb099" x="239.671044" y="109.185987" style="fill: #ff7f50; fill-opacity: 0.75; stroke: #ffffff; stroke-opacity: 0.75; stroke-width: 0.438178"/>
     <use xlink:href="#m49e43cb099" x="232.468842" y="109.185987" style="fill: #ff7f50; fill-opacity: 0.75; stroke: #ffffff; stroke-opacity: 0.75; stroke-width: 0.438178"/>
     <use xlink:href="#m49e43cb099" x="236.941198" y="106.204693" style="fill: #ff7f50; fill-opacity: 0.75; stroke: #ffffff; stroke-opacity: 0.75; stroke-width: 0.438178"/>
     <use xlink:href="#m49e43cb099" x="262.048656" y="106.204693" style="fill: #ff7f50; fill-opacity: 0.75; stroke: #ffffff; stroke-opacity: 0.75; stroke-width: 0.438178"/>
     <use xlink:href="#m49e43cb099" x="275.21666" y="108.881773" style="fill: #ff7f50; fill-opacity: 0.75; stroke: #ffffff; stroke-opacity: 0.75; stroke-width: 0.438178"/>
     <use xlink:href="#m49e43cb099" x="253.852373" y="108.881773" style="fill: #ff7f50; fill-opacity: 0.75; stroke: #ffffff; stroke-opacity: 0.75; stroke-width: 0.438178"/>
     <use xlink:href="#m49e43cb099" x="257.637916" y="112.197702" style="fill: #ff7f50; fill-opacity: 0.75; stroke: #ffffff; stroke-opacity: 0.75; stroke-width: 0.438178"/>
     <use xlink:href="#m49e43cb099" x="272.898309" y="139.039488" style="fill: #ff7f50; fill-opacity: 0.75; stroke: #ffffff; stroke-opacity: 0.75; stroke-width: 0.438178"/>
     <use xlink:href="#m49e43cb099" x="288.435937" y="94.533029" style="fill: #ff7f50; fill-opacity: 0.75; stroke: #ffffff; stroke-opacity: 0.75; stroke-width: 0.438178"/>
     <use xlink:href="#m49e43cb099" x="255.38743" y="94.533029" style="fill: #ff7f50; fill-opacity: 0.75; stroke: #ffffff; stroke-opacity: 0.75; stroke-width: 0.438178"/>
     <use xlink:href="#m49e43cb099" x="286.404325" y="155.264217" style="fill: #ff7f50; fill-opacity: 0.75; stroke: #ffffff; stroke-opacity: 0.75; stroke-width: 0.438178"/>
     <use xlink:href="#m49e43cb099" x="281.425201" y="155.264217" style="fill: #ff7f50; fill-opacity: 0.75; stroke: #ffffff; stroke-opacity: 0.75; stroke-width: 0.438178"/>
     <use xlink:href="#m49e43cb099" x="245.524875" y="119.519111" style="fill: #ff7f50; fill-opacity: 0.75; stroke: #ffffff; stroke-opacity: 0.75; stroke-width: 0.438178"/>
     <use xlink:href="#m49e43cb099" x="262.189978" y="119.519111" style="fill: #ff7f50; fill-opacity: 0.75; stroke: #ffffff; stroke-opacity: 0.75; stroke-width: 0.438178"/>
     <use xlink:href="#m49e43cb099" x="306.238386" y="175.889904" style="fill: #ff7f50; fill-opacity: 0.75; stroke: #ffffff; stroke-opacity: 0.75; stroke-width: 0.438178"/>
     <use xlink:href="#m49e43cb099" x="295.283851" y="126.587009" style="fill: #ff7f50; fill-opacity: 0.75; stroke: #ffffff; stroke-opacity: 0.75; stroke-width: 0.438178"/>
     <use xlink:href="#m49e43cb099" x="294.086411" y="126.587009" style="fill: #ff7f50; fill-opacity: 0.75; stroke: #ffffff; stroke-opacity: 0.75; stroke-width: 0.438178"/>
     <use xlink:href="#m49e43cb099" x="277.383031" y="117.308492" style="fill: #ff7f50; fill-opacity: 0.75; stroke: #ffffff; stroke-opacity: 0.75; stroke-width: 0.438178"/>
     <use xlink:href="#m49e43cb099" x="304.004045" y="117.308492" style="fill: #ff7f50; fill-opacity: 0.75; stroke: #ffffff; stroke-opacity: 0.75; stroke-width: 0.438178"/>
     <use xlink:href="#m49e43cb099" x="259.571945" y="134.810918" style="fill: #ff7f50; fill-opacity: 0.75; stroke: #ffffff; stroke-opacity: 0.75; stroke-width: 0.438178"/>
     <use xlink:href="#m49e43cb099" x="271.073205" y="134.810918" style="fill: #ff7f50; fill-opacity: 0.75; stroke: #ffffff; stroke-opacity: 0.75; stroke-width: 0.438178"/>
     <use xlink:href="#m49e43cb099" x="314.363916" y="181.953897" style="fill: #ff7f50; fill-opacity: 0.75; stroke: #ffffff; stroke-opacity: 0.75; stroke-width: 0.438178"/>
     <use xlink:href="#m49e43cb099" x="276.25763" y="181.953897" style="fill: #ff7f50; fill-opacity: 0.75; stroke: #ffffff; stroke-opacity: 0.75; stroke-width: 0.438178"/>
     <use xlink:href="#m49e43cb099" x="292.874926" y="78.673356" style="fill: #ff7f50; fill-opacity: 0.75; stroke: #ffffff; stroke-opacity: 0.75; stroke-width: 0.438178"/>
     <use xlink:href="#m49e43cb099" x="302.38671" y="78.673356" style="fill: #ff7f50; fill-opacity: 0.75; stroke: #ffffff; stroke-opacity: 0.75; stroke-width: 0.438178"/>
     <use xlink:href="#m49e43cb099" x="312.709905" y="79.88007" style="fill: #ff7f50; fill-opacity: 0.75; stroke: #ffffff; stroke-opacity: 0.75; stroke-width: 0.438178"/>
     <use xlink:href="#m49e43cb099" x="246.01849" y="79.88007" style="fill: #ff7f50; fill-opacity: 0.75; stroke: #ffffff; stroke-opacity: 0.75; stroke-width: 0.438178"/>
     <use xlink:href="#m49e43cb099" x="305.604552" y="158.600427" style="fill: #ff7f50; fill-opacity: 0.75; stroke: #ffffff; stroke-opacity: 0.75; stroke-width: 0.438178"/>
     <use xlink:href="#m49e43cb099" x="254.00711" y="158.600427" style="fill: #ff7f50; fill-opacity: 0.75; stroke: #ffffff; stroke-opacity: 0.75; stroke-width: 0.438178"/>
     <use xlink:href="#m49e43cb099" x="231.293901" y="96.267047" style="fill: #ff7f50; fill-opacity: 0.75; stroke: #ffffff; stroke-opacity: 0.75; stroke-width: 0.438178"/>
     <use xlink:href="#m49e43cb099" x="256.794739" y="96.267047" style="fill: #ff7f50; fill-opacity: 0.75; stroke: #ffffff; stroke-opacity: 0.75; stroke-width: 0.438178"/>
    </g>
   </g>
   <g id="matplotlib.axis_3">
    <g id="xtick_6">
     <g id="text_15">
      <!-- −10 -->
      <g transform="translate(234.598221 235.098967) scale(0.06 -0.06)">
       <use xlink:href="#DejaVuSans-2212"/>
       <use xlink:href="#DejaVuSans-31" x="83.789062"/>
       <use xlink:href="#DejaVuSans-30" x="147.412109"/>
      </g>
     </g>
    </g>
    <g id="xtick_7">
     <g id="text_16">
      <!-- −8 -->
      <g transform="translate(262.235215 235.098967) scale(0.06 -0.06)">
       <use xlink:href="#DejaVuSans-2212"/>
       <use xlink:href="#DejaVuSans-38" x="83.789062"/>
      </g>
     </g>
    </g>
    <g id="xtick_8">
     <g id="text_17">
      <!-- −6 -->
      <g transform="translate(287.963459 235.098967) scale(0.06 -0.06)">
       <use xlink:href="#DejaVuSans-2212"/>
       <use xlink:href="#DejaVuSans-36" x="83.789062"/>
      </g>
     </g>
    </g>
    <g id="xtick_9">
     <g id="text_18">
      <!-- −4 -->
      <g transform="translate(313.691703 235.098967) scale(0.06 -0.06)">
       <use xlink:href="#DejaVuSans-2212"/>
       <use xlink:href="#DejaVuSans-34" x="83.789062"/>
      </g>
     </g>
    </g>
    <g id="text_19">
     <!-- y -->
     <g transform="translate(265.800468 247.945217) scale(0.1 -0.1)">
      <defs>
       <path id="DejaVuSans-79" d="M 2059 -325 
Q 1816 -950 1584 -1140 
Q 1353 -1331 966 -1331 
L 506 -1331 
L 506 -850 
L 844 -850 
Q 1081 -850 1212 -737 
Q 1344 -625 1503 -206 
L 1606 56 
L 191 3500 
L 800 3500 
L 1894 763 
L 2988 3500 
L 3597 3500 
L 2059 -325 
z
" transform="scale(0.015625)"/>
      </defs>
      <use xlink:href="#DejaVuSans-79"/>
     </g>
    </g>
   </g>
   <g id="matplotlib.axis_4">
    <g id="ytick_8">
     <g id="text_20">
      <!-- −50 -->
      <g transform="translate(198.932549 225.819436) scale(0.06 -0.06)">
       <use xlink:href="#DejaVuSans-2212"/>
       <use xlink:href="#DejaVuSans-35" x="83.789062"/>
       <use xlink:href="#DejaVuSans-30" x="147.412109"/>
      </g>
     </g>
    </g>
    <g id="ytick_9">
     <g id="text_21">
      <!-- −25 -->
      <g transform="translate(198.932549 200.468297) scale(0.06 -0.06)">
       <use xlink:href="#DejaVuSans-2212"/>
       <use xlink:href="#DejaVuSans-32" x="83.789062"/>
       <use xlink:href="#DejaVuSans-35" x="147.412109"/>
      </g>
     </g>
    </g>
    <g id="ytick_10">
     <g id="text_22">
      <!-- 0 -->
      <g transform="translate(207.777861 175.117158) scale(0.06 -0.06)">
       <use xlink:href="#DejaVuSans-30"/>
      </g>
     </g>
    </g>
    <g id="ytick_11">
     <g id="text_23">
      <!-- 25 -->
      <g transform="translate(203.960361 149.766019) scale(0.06 -0.06)">
       <use xlink:href="#DejaVuSans-32"/>
       <use xlink:href="#DejaVuSans-35" x="63.623047"/>
      </g>
     </g>
    </g>
    <g id="ytick_12">
     <g id="text_24">
      <!-- 50 -->
      <g transform="translate(203.960361 124.41488) scale(0.06 -0.06)">
       <use xlink:href="#DejaVuSans-35"/>
       <use xlink:href="#DejaVuSans-30" x="63.623047"/>
      </g>
     </g>
    </g>
    <g id="ytick_13">
     <g id="text_25">
      <!-- 75 -->
      <g transform="translate(203.960361 99.063741) scale(0.06 -0.06)">
       <use xlink:href="#DejaVuSans-37"/>
       <use xlink:href="#DejaVuSans-35" x="63.623047"/>
      </g>
     </g>
    </g>
    <g id="ytick_14">
     <g id="text_26">
      <!-- 100 -->
      <g transform="translate(200.142861 73.712602) scale(0.06 -0.06)">
       <use xlink:href="#DejaVuSans-31"/>
       <use xlink:href="#DejaVuSans-30" x="63.623047"/>
       <use xlink:href="#DejaVuSans-30" x="127.246094"/>
      </g>
     </g>
    </g>
    <g id="text_27">
     <!-- improvement -->
     <g transform="translate(192.852861 181.034144) rotate(-90) scale(0.1 -0.1)">
      <use xlink:href="#DejaVuSans-69"/>
      <use xlink:href="#DejaVuSans-6d" x="27.783203"/>
      <use xlink:href="#DejaVuSans-70" x="125.195312"/>
      <use xlink:href="#DejaVuSans-72" x="188.671875"/>
      <use xlink:href="#DejaVuSans-6f" x="227.535156"/>
      <use xlink:href="#DejaVuSans-76" x="288.716797"/>
      <use xlink:href="#DejaVuSans-65" x="347.896484"/>
      <use xlink:href="#DejaVuSans-6d" x="409.419922"/>
      <use xlink:href="#DejaVuSans-65" x="506.832031"/>
      <use xlink:href="#DejaVuSans-6e" x="568.355469"/>
      <use xlink:href="#DejaVuSans-74" x="631.734375"/>
     </g>
    </g>
   </g>
   <g id="line2d_4">
    <path d="M 223.155769 102.705609 
L 224.077063 103.122577 
L 224.998357 103.539545 
L 225.919652 103.956513 
L 226.840946 104.373481 
L 227.762241 104.790449 
L 228.683535 105.207417 
L 229.60483 105.624385 
L 230.526124 106.041353 
L 231.447418 106.458321 
L 232.368713 106.875289 
L 233.290007 107.292257 
L 234.211302 107.709225 
L 235.132596 108.126193 
L 236.053891 108.543161 
L 236.975185 108.96013 
L 237.896479 109.377098 
L 238.817774 109.794066 
L 239.739068 110.211034 
L 240.660363 110.628002 
L 241.581657 111.04497 
L 242.502951 111.461938 
L 243.424246 111.878906 
L 244.34554 112.295874 
L 245.266835 112.712842 
L 246.188129 113.12981 
L 247.109424 113.546778 
L 248.030718 113.963746 
L 248.952012 114.380714 
L 249.873307 114.797682 
L 250.794601 115.21465 
L 251.715896 115.631618 
L 252.63719 116.048586 
L 253.558485 116.465554 
L 254.479779 116.882522 
L 255.401073 117.29949 
L 256.322368 117.716458 
L 257.243662 118.133426 
L 258.164957 118.550394 
L 259.086251 118.967362 
L 260.007546 119.38433 
L 260.92884 119.801298 
L 261.850134 120.218266 
L 262.771429 120.635234 
L 263.692723 121.052202 
L 264.614018 121.46917 
L 265.535312 121.886138 
L 266.456606 122.303106 
L 267.377901 122.720074 
L 268.299195 123.137042 
L 269.22049 123.55401 
L 270.141784 123.970979 
L 271.063079 124.387947 
L 271.984373 124.804915 
L 272.905667 125.221883 
L 273.826962 125.638851 
L 274.748256 126.055819 
L 275.669551 126.472787 
L 276.590845 126.889755 
L 277.51214 127.306723 
L 278.433434 127.723691 
L 279.354728 128.140659 
L 280.276023 128.557627 
L 281.197317 128.974595 
L 282.118612 129.391563 
L 283.039906 129.808531 
L 283.9612 130.225499 
L 284.882495 130.642467 
L 285.803789 131.059435 
L 286.725084 131.476403 
L 287.646378 131.893371 
L 288.567673 132.310339 
L 289.488967 132.727307 
L 290.410261 133.144275 
L 291.331556 133.561243 
L 292.25285 133.978211 
L 293.174145 134.395179 
L 294.095439 134.812147 
L 295.016734 135.229115 
L 295.938028 135.646083 
L 296.859322 136.063051 
L 297.780617 136.480019 
L 298.701911 136.896987 
L 299.623206 137.313955 
L 300.5445 137.730923 
L 301.465794 138.147891 
L 302.387089 138.564859 
L 303.308383 138.981828 
L 304.229678 139.398796 
L 305.150972 139.815764 
L 306.072267 140.232732 
L 306.993561 140.6497 
L 307.914855 141.066668 
L 308.83615 141.483636 
L 309.757444 141.900604 
L 310.678739 142.317572 
L 311.600033 142.73454 
L 312.521328 143.151508 
L 313.442622 143.568476 
L 314.363916 143.985444 
" clip-path="url(#p6855100fa9)" style="fill: none; stroke: #ff7f50; stroke-width: 2.25; stroke-linecap: square"/>
   </g>
   <g id="line2d_5">
    <path d="M 218.595361 122.135349 
L 318.924324 122.135349 
" clip-path="url(#p6855100fa9)" style="fill: none; stroke: #a9a9a9; stroke-width: 1.5; stroke-linecap: square"/>
   </g>
   <g id="line2d_6">
    <path d="M 218.595361 147.486488 
L 318.924324 147.486488 
" clip-path="url(#p6855100fa9)" style="fill: none; stroke: #a9a9a9; stroke-width: 1.5; stroke-linecap: square"/>
   </g>
  </g>
  <g id="axes_3">
   <g id="patch_4">
    <path d="M 371.639541 223.539905 
L 471.968504 223.539905 
L 471.968504 71.433071 
L 371.639541 71.433071 
z
" style="fill: #ffffff"/>
   </g>
   <g id="PolyCollection_3">
    <path d="M 376.199949 109.335527 
L 376.199949 178.69145 
L 377.121243 177.840007 
L 378.042538 177.099816 
L 378.963832 176.367902 
L 379.885126 175.635988 
L 380.806421 174.867466 
L 381.727715 173.974317 
L 382.64901 172.958531 
L 383.570304 172.009628 
L 384.491599 171.236284 
L 385.412893 170.46294 
L 386.334187 169.6892 
L 387.255482 168.793388 
L 388.176776 167.946529 
L 389.098071 167.12492 
L 390.019365 166.146683 
L 390.94066 165.20732 
L 391.861954 164.310804 
L 392.783248 163.414287 
L 393.704543 162.548249 
L 394.625837 161.797061 
L 395.547132 160.967461 
L 396.468426 160.057762 
L 397.38972 159.349299 
L 398.311015 158.525945 
L 399.232309 157.669647 
L 400.153604 156.994156 
L 401.074898 156.401558 
L 401.996193 155.672966 
L 402.917487 154.833351 
L 403.838781 153.993736 
L 404.760076 153.143806 
L 405.68137 152.180603 
L 406.602665 151.40585 
L 407.523959 150.634752 
L 408.445254 149.808106 
L 409.366548 148.96802 
L 410.287842 148.123771 
L 411.209137 147.287116 
L 412.130431 146.526682 
L 413.051726 145.855132 
L 413.97302 145.18688 
L 414.894315 144.738884 
L 415.815609 143.839872 
L 416.736903 142.875322 
L 417.658198 142.343523 
L 418.579492 141.81529 
L 419.500787 141.196243 
L 420.422081 140.635774 
L 421.343375 139.947029 
L 422.26467 139.132653 
L 423.185964 138.468705 
L 424.107259 137.891843 
L 425.028553 137.357337 
L 425.949848 136.761912 
L 426.871142 136.174087 
L 427.792436 135.668971 
L 428.713731 135.199182 
L 429.635025 134.678119 
L 430.55632 134.276223 
L 431.477614 134.20585 
L 432.398909 133.679753 
L 433.320203 133.375278 
L 434.241497 133.114642 
L 435.162792 133.072139 
L 436.084086 133.030404 
L 437.005381 132.987178 
L 437.926675 132.726743 
L 438.847969 132.523718 
L 439.769264 132.240279 
L 440.690558 132.044562 
L 441.611853 131.982229 
L 442.533147 131.851919 
L 443.454442 131.935525 
L 444.375736 131.743409 
L 445.29703 131.53182 
L 446.218325 131.510499 
L 447.139619 131.61575 
L 448.060914 131.56376 
L 448.982208 131.564405 
L 449.903503 131.655986 
L 450.824797 131.539143 
L 451.746091 131.416004 
L 452.667386 131.290009 
L 453.58868 131.223334 
L 454.509975 131.233052 
L 455.431269 131.18617 
L 456.352563 131.341948 
L 457.273858 131.499595 
L 458.195152 131.665795 
L 459.116447 131.93459 
L 460.037741 131.990031 
L 460.959036 132.013592 
L 461.88033 132.016127 
L 462.801624 132.172106 
L 463.722919 132.138562 
L 464.644213 132.126906 
L 465.565508 132.320635 
L 466.486802 132.608715 
L 467.408097 132.853302 
L 467.408097 90.159875 
L 467.408097 90.159875 
L 466.486802 91.002611 
L 465.565508 91.850417 
L 464.644213 92.698484 
L 463.722919 93.430291 
L 462.801624 94.124258 
L 461.88033 94.830596 
L 460.959036 95.527693 
L 460.037741 96.225077 
L 459.116447 96.993491 
L 458.195152 97.791568 
L 457.273858 98.536655 
L 456.352563 99.567233 
L 455.431269 100.212637 
L 454.509975 100.814333 
L 453.58868 101.489859 
L 452.667386 102.125912 
L 451.746091 102.747704 
L 450.824797 103.154197 
L 449.903503 103.847039 
L 448.982208 104.532902 
L 448.060914 105.226196 
L 447.139619 105.850248 
L 446.218325 106.466232 
L 445.29703 107.091358 
L 444.375736 107.712602 
L 443.454442 108.327327 
L 442.533147 108.952724 
L 441.611853 109.364124 
L 440.690558 110.142517 
L 439.769264 110.49521 
L 438.847969 110.86536 
L 437.926675 111.273286 
L 437.005381 111.677241 
L 436.084086 111.854426 
L 435.162792 112.126021 
L 434.241497 112.337487 
L 433.320203 112.550538 
L 432.398909 112.847789 
L 431.477614 113.161146 
L 430.55632 113.583588 
L 429.635025 113.691406 
L 428.713731 113.60586 
L 427.792436 113.878374 
L 426.871142 114.027023 
L 425.949848 114.15352 
L 425.028553 114.387887 
L 424.107259 114.495117 
L 423.185964 114.49128 
L 422.26467 114.389171 
L 421.343375 114.849258 
L 420.422081 114.948875 
L 419.500787 114.903485 
L 418.579492 114.571379 
L 417.658198 114.655263 
L 416.736903 114.483052 
L 415.815609 114.310842 
L 414.894315 114.242737 
L 413.97302 114.522916 
L 413.051726 114.493754 
L 412.130431 114.389537 
L 411.209137 114.304392 
L 410.287842 114.247411 
L 409.366548 114.139836 
L 408.445254 114.030582 
L 407.523959 113.922167 
L 406.602665 113.813753 
L 405.68137 113.678187 
L 404.760076 113.574124 
L 403.838781 113.47066 
L 402.917487 113.371252 
L 401.996193 113.268738 
L 401.074898 113.156175 
L 400.153604 113.045848 
L 399.232309 112.941994 
L 398.311015 112.860677 
L 397.38972 112.758288 
L 396.468426 112.655899 
L 395.547132 112.55351 
L 394.625837 112.402604 
L 393.704543 112.289404 
L 392.783248 112.179087 
L 391.861954 112.073986 
L 390.94066 111.970553 
L 390.019365 111.859635 
L 389.098071 111.747032 
L 388.176776 111.63443 
L 387.255482 111.522671 
L 386.334187 111.415026 
L 385.412893 111.261459 
L 384.491599 111.035316 
L 383.570304 110.809172 
L 382.64901 110.576695 
L 381.727715 110.342237 
L 380.806421 110.103305 
L 379.885126 109.889027 
L 378.963832 109.659042 
L 378.042538 109.538686 
L 377.121243 109.437047 
L 376.199949 109.335527 
z
" clip-path="url(#p1629714a10)" style="fill: #ff7f50; fill-opacity: 0.15"/>
   </g>
   <g id="PathCollection_3">
    <g clip-path="url(#p1629714a10)">
     <use xlink:href="#m49e43cb099" x="394.317945" y="79.707683" style="fill: #ff7f50; fill-opacity: 0.75; stroke: #ffffff; stroke-opacity: 0.75; stroke-width: 0.438178"/>
     <use xlink:href="#m49e43cb099" x="415.951553" y="79.707683" style="fill: #ff7f50; fill-opacity: 0.75; stroke: #ffffff; stroke-opacity: 0.75; stroke-width: 0.438178"/>
     <use xlink:href="#m49e43cb099" x="397.957151" y="209.343267" style="fill: #ff7f50; fill-opacity: 0.75; stroke: #ffffff; stroke-opacity: 0.75; stroke-width: 0.438178"/>
     <use xlink:href="#m49e43cb099" x="401.980999" y="209.343267" style="fill: #ff7f50; fill-opacity: 0.75; stroke: #ffffff; stroke-opacity: 0.75; stroke-width: 0.438178"/>
     <use xlink:href="#m49e43cb099" x="415.043002" y="153.337531" style="fill: #ff7f50; fill-opacity: 0.75; stroke: #ffffff; stroke-opacity: 0.75; stroke-width: 0.438178"/>
     <use xlink:href="#m49e43cb099" x="421.247438" y="153.337531" style="fill: #ff7f50; fill-opacity: 0.75; stroke: #ffffff; stroke-opacity: 0.75; stroke-width: 0.438178"/>
     <use xlink:href="#m49e43cb099" x="448.397445" y="99.370026" style="fill: #ff7f50; fill-opacity: 0.75; stroke: #ffffff; stroke-opacity: 0.75; stroke-width: 0.438178"/>
     <use xlink:href="#m49e43cb099" x="439.518811" y="99.370026" style="fill: #ff7f50; fill-opacity: 0.75; stroke: #ffffff; stroke-opacity: 0.75; stroke-width: 0.438178"/>
     <use xlink:href="#m49e43cb099" x="376.199949" y="140.033253" style="fill: #ff7f50; fill-opacity: 0.75; stroke: #ffffff; stroke-opacity: 0.75; stroke-width: 0.438178"/>
     <use xlink:href="#m49e43cb099" x="402.167259" y="109.185987" style="fill: #ff7f50; fill-opacity: 0.75; stroke: #ffffff; stroke-opacity: 0.75; stroke-width: 0.438178"/>
     <use xlink:href="#m49e43cb099" x="417.241852" y="109.185987" style="fill: #ff7f50; fill-opacity: 0.75; stroke: #ffffff; stroke-opacity: 0.75; stroke-width: 0.438178"/>
     <use xlink:href="#m49e43cb099" x="416.668551" y="106.204693" style="fill: #ff7f50; fill-opacity: 0.75; stroke: #ffffff; stroke-opacity: 0.75; stroke-width: 0.438178"/>
     <use xlink:href="#m49e43cb099" x="405.017896" y="106.204693" style="fill: #ff7f50; fill-opacity: 0.75; stroke: #ffffff; stroke-opacity: 0.75; stroke-width: 0.438178"/>
     <use xlink:href="#m49e43cb099" x="464.148389" y="108.881773" style="fill: #ff7f50; fill-opacity: 0.75; stroke: #ffffff; stroke-opacity: 0.75; stroke-width: 0.438178"/>
     <use xlink:href="#m49e43cb099" x="466.301778" y="108.881773" style="fill: #ff7f50; fill-opacity: 0.75; stroke: #ffffff; stroke-opacity: 0.75; stroke-width: 0.438178"/>
     <use xlink:href="#m49e43cb099" x="428.86847" y="112.197702" style="fill: #ff7f50; fill-opacity: 0.75; stroke: #ffffff; stroke-opacity: 0.75; stroke-width: 0.438178"/>
     <use xlink:href="#m49e43cb099" x="440.347282" y="139.039488" style="fill: #ff7f50; fill-opacity: 0.75; stroke: #ffffff; stroke-opacity: 0.75; stroke-width: 0.438178"/>
     <use xlink:href="#m49e43cb099" x="424.710323" y="94.533029" style="fill: #ff7f50; fill-opacity: 0.75; stroke: #ffffff; stroke-opacity: 0.75; stroke-width: 0.438178"/>
     <use xlink:href="#m49e43cb099" x="460.684758" y="94.533029" style="fill: #ff7f50; fill-opacity: 0.75; stroke: #ffffff; stroke-opacity: 0.75; stroke-width: 0.438178"/>
     <use xlink:href="#m49e43cb099" x="412.20358" y="155.264217" style="fill: #ff7f50; fill-opacity: 0.75; stroke: #ffffff; stroke-opacity: 0.75; stroke-width: 0.438178"/>
     <use xlink:href="#m49e43cb099" x="425.88785" y="155.264217" style="fill: #ff7f50; fill-opacity: 0.75; stroke: #ffffff; stroke-opacity: 0.75; stroke-width: 0.438178"/>
     <use xlink:href="#m49e43cb099" x="440.06588" y="119.519111" style="fill: #ff7f50; fill-opacity: 0.75; stroke: #ffffff; stroke-opacity: 0.75; stroke-width: 0.438178"/>
     <use xlink:href="#m49e43cb099" x="427.446609" y="119.519111" style="fill: #ff7f50; fill-opacity: 0.75; stroke: #ffffff; stroke-opacity: 0.75; stroke-width: 0.438178"/>
     <use xlink:href="#m49e43cb099" x="467.408097" y="175.889904" style="fill: #ff7f50; fill-opacity: 0.75; stroke: #ffffff; stroke-opacity: 0.75; stroke-width: 0.438178"/>
     <use xlink:href="#m49e43cb099" x="399.232214" y="126.587009" style="fill: #ff7f50; fill-opacity: 0.75; stroke: #ffffff; stroke-opacity: 0.75; stroke-width: 0.438178"/>
     <use xlink:href="#m49e43cb099" x="418.105457" y="126.587009" style="fill: #ff7f50; fill-opacity: 0.75; stroke: #ffffff; stroke-opacity: 0.75; stroke-width: 0.438178"/>
     <use xlink:href="#m49e43cb099" x="447.385905" y="117.308492" style="fill: #ff7f50; fill-opacity: 0.75; stroke: #ffffff; stroke-opacity: 0.75; stroke-width: 0.438178"/>
     <use xlink:href="#m49e43cb099" x="445.887882" y="117.308492" style="fill: #ff7f50; fill-opacity: 0.75; stroke: #ffffff; stroke-opacity: 0.75; stroke-width: 0.438178"/>
     <use xlink:href="#m49e43cb099" x="424.511359" y="134.810918" style="fill: #ff7f50; fill-opacity: 0.75; stroke: #ffffff; stroke-opacity: 0.75; stroke-width: 0.438178"/>
     <use xlink:href="#m49e43cb099" x="446.35955" y="134.810918" style="fill: #ff7f50; fill-opacity: 0.75; stroke: #ffffff; stroke-opacity: 0.75; stroke-width: 0.438178"/>
     <use xlink:href="#m49e43cb099" x="425.629916" y="181.953897" style="fill: #ff7f50; fill-opacity: 0.75; stroke: #ffffff; stroke-opacity: 0.75; stroke-width: 0.438178"/>
     <use xlink:href="#m49e43cb099" x="427.27459" y="181.953897" style="fill: #ff7f50; fill-opacity: 0.75; stroke: #ffffff; stroke-opacity: 0.75; stroke-width: 0.438178"/>
     <use xlink:href="#m49e43cb099" x="443.138117" y="78.673356" style="fill: #ff7f50; fill-opacity: 0.75; stroke: #ffffff; stroke-opacity: 0.75; stroke-width: 0.438178"/>
     <use xlink:href="#m49e43cb099" x="457.136106" y="78.673356" style="fill: #ff7f50; fill-opacity: 0.75; stroke: #ffffff; stroke-opacity: 0.75; stroke-width: 0.438178"/>
     <use xlink:href="#m49e43cb099" x="438.775641" y="79.88007" style="fill: #ff7f50; fill-opacity: 0.75; stroke: #ffffff; stroke-opacity: 0.75; stroke-width: 0.438178"/>
     <use xlink:href="#m49e43cb099" x="415.386251" y="79.88007" style="fill: #ff7f50; fill-opacity: 0.75; stroke: #ffffff; stroke-opacity: 0.75; stroke-width: 0.438178"/>
     <use xlink:href="#m49e43cb099" x="454.662966" y="158.600427" style="fill: #ff7f50; fill-opacity: 0.75; stroke: #ffffff; stroke-opacity: 0.75; stroke-width: 0.438178"/>
     <use xlink:href="#m49e43cb099" x="423.863096" y="158.600427" style="fill: #ff7f50; fill-opacity: 0.75; stroke: #ffffff; stroke-opacity: 0.75; stroke-width: 0.438178"/>
     <use xlink:href="#m49e43cb099" x="416.795581" y="96.267047" style="fill: #ff7f50; fill-opacity: 0.75; stroke: #ffffff; stroke-opacity: 0.75; stroke-width: 0.438178"/>
     <use xlink:href="#m49e43cb099" x="446.959203" y="96.267047" style="fill: #ff7f50; fill-opacity: 0.75; stroke: #ffffff; stroke-opacity: 0.75; stroke-width: 0.438178"/>
    </g>
   </g>
   <g id="matplotlib.axis_5">
    <g id="xtick_10">
     <g id="text_28">
      <!-- −10 -->
      <g transform="translate(388.426931 235.098967) scale(0.06 -0.06)">
       <use xlink:href="#DejaVuSans-2212"/>
       <use xlink:href="#DejaVuSans-31" x="83.789062"/>
       <use xlink:href="#DejaVuSans-30" x="147.412109"/>
      </g>
     </g>
    </g>
    <g id="xtick_11">
     <g id="text_29">
      <!-- −5 -->
      <g transform="translate(426.157804 235.098967) scale(0.06 -0.06)">
       <use xlink:href="#DejaVuSans-2212"/>
       <use xlink:href="#DejaVuSans-35" x="83.789062"/>
      </g>
     </g>
    </g>
    <g id="xtick_12">
     <g id="text_30">
      <!-- 0 -->
      <g transform="translate(464.493833 235.098967) scale(0.06 -0.06)">
       <use xlink:href="#DejaVuSans-30"/>
      </g>
     </g>
    </g>
    <g id="text_31">
     <!-- z -->
     <g transform="translate(419.179804 247.945217) scale(0.1 -0.1)">
      <defs>
       <path id="DejaVuSans-7a" d="M 353 3500 
L 3084 3500 
L 3084 2975 
L 922 459 
L 3084 459 
L 3084 0 
L 275 0 
L 275 525 
L 2438 3041 
L 353 3041 
L 353 3500 
z
" transform="scale(0.015625)"/>
      </defs>
      <use xlink:href="#DejaVuSans-7a"/>
     </g>
    </g>
   </g>
   <g id="matplotlib.axis_6">
    <g id="ytick_15">
     <g id="text_32">
      <!-- −50 -->
      <g transform="translate(351.976729 225.819436) scale(0.06 -0.06)">
       <use xlink:href="#DejaVuSans-2212"/>
       <use xlink:href="#DejaVuSans-35" x="83.789062"/>
       <use xlink:href="#DejaVuSans-30" x="147.412109"/>
      </g>
     </g>
    </g>
    <g id="ytick_16">
     <g id="text_33">
      <!-- −25 -->
      <g transform="translate(351.976729 200.468297) scale(0.06 -0.06)">
       <use xlink:href="#DejaVuSans-2212"/>
       <use xlink:href="#DejaVuSans-32" x="83.789062"/>
       <use xlink:href="#DejaVuSans-35" x="147.412109"/>
      </g>
     </g>
    </g>
    <g id="ytick_17">
     <g id="text_34">
      <!-- 0 -->
      <g transform="translate(360.822041 175.117158) scale(0.06 -0.06)">
       <use xlink:href="#DejaVuSans-30"/>
      </g>
     </g>
    </g>
    <g id="ytick_18">
     <g id="text_35">
      <!-- 25 -->
      <g transform="translate(357.004541 149.766019) scale(0.06 -0.06)">
       <use xlink:href="#DejaVuSans-32"/>
       <use xlink:href="#DejaVuSans-35" x="63.623047"/>
      </g>
     </g>
    </g>
    <g id="ytick_19">
     <g id="text_36">
      <!-- 50 -->
      <g transform="translate(357.004541 124.41488) scale(0.06 -0.06)">
       <use xlink:href="#DejaVuSans-35"/>
       <use xlink:href="#DejaVuSans-30" x="63.623047"/>
      </g>
     </g>
    </g>
    <g id="ytick_20">
     <g id="text_37">
      <!-- 75 -->
      <g transform="translate(357.004541 99.063741) scale(0.06 -0.06)">
       <use xlink:href="#DejaVuSans-37"/>
       <use xlink:href="#DejaVuSans-35" x="63.623047"/>
      </g>
     </g>
    </g>
    <g id="ytick_21">
     <g id="text_38">
      <!-- 100 -->
      <g transform="translate(353.187041 73.712602) scale(0.06 -0.06)">
       <use xlink:href="#DejaVuSans-31"/>
       <use xlink:href="#DejaVuSans-30" x="63.623047"/>
       <use xlink:href="#DejaVuSans-30" x="127.246094"/>
      </g>
     </g>
    </g>
    <g id="text_39">
     <!-- improvement -->
     <g transform="translate(345.897041 181.034144) rotate(-90) scale(0.1 -0.1)">
      <use xlink:href="#DejaVuSans-69"/>
      <use xlink:href="#DejaVuSans-6d" x="27.783203"/>
      <use xlink:href="#DejaVuSans-70" x="125.195312"/>
      <use xlink:href="#DejaVuSans-72" x="188.671875"/>
      <use xlink:href="#DejaVuSans-6f" x="227.535156"/>
      <use xlink:href="#DejaVuSans-76" x="288.716797"/>
      <use xlink:href="#DejaVuSans-65" x="347.896484"/>
      <use xlink:href="#DejaVuSans-6d" x="409.419922"/>
      <use xlink:href="#DejaVuSans-65" x="506.832031"/>
      <use xlink:href="#DejaVuSans-6e" x="568.355469"/>
      <use xlink:href="#DejaVuSans-74" x="631.734375"/>
     </g>
    </g>
   </g>
   <g id="line2d_7">
    <path d="M 376.199949 141.656827 
L 377.121243 141.357377 
L 378.042538 141.057927 
L 378.963832 140.758477 
L 379.885126 140.459027 
L 380.806421 140.159577 
L 381.727715 139.860126 
L 382.64901 139.560676 
L 383.570304 139.261226 
L 384.491599 138.961776 
L 385.412893 138.662326 
L 386.334187 138.362876 
L 387.255482 138.063426 
L 388.176776 137.763976 
L 389.098071 137.464526 
L 390.019365 137.165076 
L 390.94066 136.865625 
L 391.861954 136.566175 
L 392.783248 136.266725 
L 393.704543 135.967275 
L 394.625837 135.667825 
L 395.547132 135.368375 
L 396.468426 135.068925 
L 397.38972 134.769475 
L 398.311015 134.470025 
L 399.232309 134.170574 
L 400.153604 133.871124 
L 401.074898 133.571674 
L 401.996193 133.272224 
L 402.917487 132.972774 
L 403.838781 132.673324 
L 404.760076 132.373874 
L 405.68137 132.074424 
L 406.602665 131.774974 
L 407.523959 131.475524 
L 408.445254 131.176073 
L 409.366548 130.876623 
L 410.287842 130.577173 
L 411.209137 130.277723 
L 412.130431 129.978273 
L 413.051726 129.678823 
L 413.97302 129.379373 
L 414.894315 129.079923 
L 415.815609 128.780473 
L 416.736903 128.481023 
L 417.658198 128.181572 
L 418.579492 127.882122 
L 419.500787 127.582672 
L 420.422081 127.283222 
L 421.343375 126.983772 
L 422.26467 126.684322 
L 423.185964 126.384872 
L 424.107259 126.085422 
L 425.028553 125.785972 
L 425.949848 125.486521 
L 426.871142 125.187071 
L 427.792436 124.887621 
L 428.713731 124.588171 
L 429.635025 124.288721 
L 430.55632 123.989271 
L 431.477614 123.689821 
L 432.398909 123.390371 
L 433.320203 123.090921 
L 434.241497 122.791471 
L 435.162792 122.49202 
L 436.084086 122.19257 
L 437.005381 121.89312 
L 437.926675 121.59367 
L 438.847969 121.29422 
L 439.769264 120.99477 
L 440.690558 120.69532 
L 441.611853 120.39587 
L 442.533147 120.09642 
L 443.454442 119.79697 
L 444.375736 119.497519 
L 445.29703 119.198069 
L 446.218325 118.898619 
L 447.139619 118.599169 
L 448.060914 118.299719 
L 448.982208 118.000269 
L 449.903503 117.700819 
L 450.824797 117.401369 
L 451.746091 117.101919 
L 452.667386 116.802468 
L 453.58868 116.503018 
L 454.509975 116.203568 
L 455.431269 115.904118 
L 456.352563 115.604668 
L 457.273858 115.305218 
L 458.195152 115.005768 
L 459.116447 114.706318 
L 460.037741 114.406868 
L 460.959036 114.107418 
L 461.88033 113.807967 
L 462.801624 113.508517 
L 463.722919 113.209067 
L 464.644213 112.909617 
L 465.565508 112.610167 
L 466.486802 112.310717 
L 467.408097 112.011267 
" clip-path="url(#p1629714a10)" style="fill: none; stroke: #ff7f50; stroke-width: 2.25; stroke-linecap: square"/>
   </g>
   <g id="line2d_8">
    <path d="M 371.639541 122.135349 
L 471.968504 122.135349 
" clip-path="url(#p1629714a10)" style="fill: none; stroke: #a9a9a9; stroke-width: 1.5; stroke-linecap: square"/>
   </g>
   <g id="line2d_9">
    <path d="M 371.639541 147.486488 
L 471.968504 147.486488 
" clip-path="url(#p1629714a10)" style="fill: none; stroke: #a9a9a9; stroke-width: 1.5; stroke-linecap: square"/>
   </g>
  </g>
 </g>
 <defs>
  <clipPath id="pa39db7c235">
   <rect x="65.551181" y="71.433071" width="100.328963" height="152.106834"/>
  </clipPath>
  <clipPath id="p6855100fa9">
   <rect x="218.595361" y="71.433071" width="100.328963" height="152.106834"/>
  </clipPath>
  <clipPath id="p1629714a10">
   <rect x="371.639541" y="71.433071" width="100.328963" height="152.106834"/>
  </clipPath>
 </defs>
</svg>
